<svg version="1" xmlns="http://www.w3.org/2000/svg" width="576" height="576" viewBox="0 0 432.000000 432.000000"><path d="M208.5 1.4c-3.8 1.3-8.4 3.4-33 15.1-5.5 2.6-14.5 6.9-20 9.5-5.5 2.6-14.7 7-20.5 9.7-5.8 2.8-14.8 7.1-20 9.6-5.2 2.4-15.3 7.3-22.5 10.7-7.1 3.4-14.9 7-17.2 8.1C55.9 72.9 35.9 83.2 33 85.7c-2 1.7-4.7 5.3-6 8-2.2 4.1-2.5 6.1-2.5 14.3.1 12.4 1.1 24.8 3.6 42.5.5 3.8 1.1 8.3 1.3 10 .7 6.1 3.7 22.3 5.7 31.5 23.1 105 76 182.9 155.9 229.6 13.7 8.1 17.5 9.6 24.3 9.9 7 .3 12.4-1.5 22.1-7.2 3.4-2 7.7-4.5 9.6-5.6 3.7-2 17.1-10.8 18-11.7.3-.3 3.2-2.5 6.5-4.9 30-22.2 58.8-54 77.6-85.6 8.3-13.9 8.4-14.1 15.8-29 11.3-22.8 20.3-46.8 27.4-73 3.3-12 3.9-14.7 5.2-21.3.2-1.3.7-3.2 1-4.2.7-2.3 4.5-23.2 5.1-28.5.2-2.2.6-4.9.9-6.1.2-1.1.7-4.5 1-7.5.3-3 .8-6.8 1-8.4 1-6.7 1.9-20.6 1.9-30 .1-10.9-1.5-15.6-7.2-21.9-2.4-2.5-16.9-10.1-44.7-23.1-27.2-12.8-35.2-16.6-59.5-28.3-7.4-3.5-20.9-9.9-30-14.2-9.1-4.3-21.4-10.1-27.5-13-6-2.9-12.1-5.7-13.5-6.2-4.1-1.6-13.2-1.8-17.5-.4zm15.7 9.5c2.4 1 9.3 4.2 15.3 7.1 6.1 2.9 15.1 7.1 20 9.5 5 2.3 14 6.6 20 9.5 6.1 2.9 14.6 6.9 19 9 14.2 6.7 26.8 12.7 38 18 6.1 2.9 14.6 6.9 19 9 37 17.4 39.7 19 42.5 25.3 1.9 4.2 2.1 14 .5 30-.5 6-.8 8.1-2 17.7-.8 6.4-2.6 19.1-3.1 21.5-.2 1.1-1.1 5.8-1.9 10.5-1.4 8.1-7.5 34.1-9.5 40.5-11.2 35.8-21.1 59.5-36.1 86-17.3 30.4-44.3 62.2-70.9 83.3-5.8 4.6-11.2 8.9-12.1 9.6-3.3 2.7-21.8 14.5-29.6 18.9-10.6 6.1-15.8 7.5-21.3 5.8-10-3-38.8-21.5-58.7-37.8-8.5-7-28.8-27.7-37.5-38.4-7.2-8.7-25.8-34.9-25.8-36.3 0-.2-2.5-4.8-5.6-10.2-20.6-36.3-35.1-78.7-44.4-129.8-1.1-6.4-2.3-13.7-2.6-16.3-.2-2.7-.6-5.8-.9-7.1-.2-1.3-.7-5.3-1-9-.3-3.7-.8-8.1-1-9.7-.3-1.7-.7-7.8-1-13.7-.5-8.4-.3-11.4 1-14.5 3.2-7.5 3.3-7.6 51-30 8.8-4.2 23.8-11.3 33.3-15.9 9.6-4.6 17.5-8.4 17.7-8.4.1 0 7.2-3.3 15.6-7.4 8.5-4 20.4-9.7 26.4-12.5 6.1-2.9 14.8-7.1 19.5-9.3 15.5-7.5 18.8-8.1 26.2-4.9z"/><path d="M212 19.4c-1.9.7-8.9 3.9-15.5 7.1-6.6 3.1-15.6 7.4-20 9.5-4.4 2.1-13.4 6.3-20 9.5s-15.6 7.4-20 9.5c-4.4 2.1-13.8 6.6-21 10-7.1 3.4-16.6 7.9-21 10-4.4 2.1-13.8 6.6-21 10-7.1 3.4-16.2 7.7-20.1 9.5-10.4 4.8-11.4 6.4-10.9 18.3.3 5.3.7 11.3 1 13.2.3 1.9.7 6.4 1 9.8.6 7.7 2.9 22.9 5.5 37.7 2.6 14.3 2.3 12.9 6.3 29 21 83.5 63.2 148.5 123.9 190.7 17.9 12.5 33.5 21 37.3 20.5 3.4-.5 18.6-9 30.5-17 60.6-40.6 103.1-102.6 126-183.7 2.5-8.7 8.4-34.4 9.5-41 .4-2.5.9-5.4 1.1-6.5.8-3.9 4.3-32.1 4.8-38.5 2-24.3 2-23.5-1.1-26.8-2.5-2.8-11.9-7.5-50.4-25.5-4.1-1.9-13-6.2-19.9-9.5-22.3-10.6-36.4-17.4-61.5-29.2-4.4-2.1-14.3-6.8-22-10.5-15.9-7.5-17.6-8-22.5-6.1z"/></svg>